<svg width="512" height="512" viewBox="0 0 512 512" fill="none" xmlns="http://www.w3.org/2000/svg">
<path d="M292.661 102.561H317.401L330.561 104.14L345.3 106.771L356.354 109.929L366.882 113.613L376.357 117.823L386.885 123.086L397.939 129.927L407.94 137.295L415.836 144.136L421.1 148.873L432.681 160.451L437.418 166.24L444.261 175.186L450.052 184.133L455.316 193.606L461.632 206.763L467.422 224.13L470.581 238.865L472.16 250.443L473.213 264.653V274.652L471.634 292.019L469.528 304.123L466.896 315.175L462.159 329.384L457.421 339.909L451.631 350.961L445.841 359.908L439.524 368.328L433.734 375.17L430.049 379.38L417.942 391.484L412.152 396.22L404.256 402.536L394.781 408.851L384.779 414.64L373.199 420.429L360.565 425.165L348.458 428.849L332.667 432.007L320.033 433.586L305.295 434.112L223.178 434.638L222.125 447.795L219.493 458.847L216.335 467.267L212.124 475.161L206.86 482.529L202.122 487.792L201.596 488.844H200.543V489.897L196.332 493.581L188.962 498.843L176.855 505.159L166.854 508.316L156.853 510.421L148.957 511.474L137.903 512L137.376 511.474V342.541L147.904 342.014L208.965 341.488L222.651 340.962L223.178 352.014L308.979 351.487L318.981 350.435L328.456 348.33L337.404 345.172L346.353 340.436L353.196 335.699L358.46 331.489L366.356 323.595L373.199 314.648L378.463 305.176L381.621 297.281L384.253 289.387L386.359 276.231V260.442L384.253 247.812L381.621 238.865L378.989 232.024L373.199 222.025L368.461 215.709L363.724 210.447L361.092 207.289L356.881 203.605L351.617 199.395L343.195 194.132L334.246 189.922L323.718 186.764L314.243 185.186H295.293L285.292 186.764L276.343 189.396L264.236 195.185L257.393 199.921L250.55 205.71L243.181 213.078L237.39 220.972L231.074 230.971L228.442 233.076L218.967 236.234L209.492 238.339L200.543 238.865H147.904L140.535 238.339L140.008 236.234L144.219 219.393L148.43 207.815L152.642 198.342L157.905 187.817L162.643 180.449L167.907 172.555L175.276 163.082L181.593 156.241L185.278 152.031L193.7 144.136L199.49 139.4L208.439 132.559L217.914 126.243L226.862 120.981L238.969 115.192L253.182 109.929L266.868 106.245L282.133 103.614L292.661 102.561Z" fill="#006680"/>
<path d="M187.392 0H211.096L228.478 2.10509L241.647 4.73644L255.343 8.94661L266.931 13.6831L279.047 19.472L291.162 26.8398L300.643 33.6814L309.071 40.5229L315.392 46.3119L326.981 57.8898L331.722 63.6788L338.043 71.5729L343.31 79.467L349.631 90.5187L352.265 95.7814V97.3602L348.051 96.8339L334.355 94.2026L320.133 92.6238L310.652 92.0975H299.59L280.627 93.6763L265.351 96.3077L252.709 99.4653H249.548L244.281 95.2551L236.38 90.5187L226.371 86.3085L216.363 83.6771L207.408 82.6246H190.025L182.124 83.6771L174.223 85.7822L165.795 88.9399L156.84 93.6763L148.412 99.9916L143.145 104.728L137.35 110.517L131.029 118.937L126.289 127.358L122.601 135.778L119.441 146.303L117.861 155.776L117.334 163.144V248.926L118.387 249.453L206.882 248.926L217.943 247.348L228.478 244.19L240.594 238.401L247.968 233.138L254.816 227.349L260.61 221.56L265.878 214.719L271.672 205.772L274.306 202.088L279.573 199.457L288.001 196.825L298.01 195.247H311.178L321.187 196.825L329.615 199.457L335.409 202.088L342.257 205.772L348.578 210.509L354.899 216.298L358.059 218.929L358.586 221.56L354.372 232.086L350.158 241.032L343.837 252.084L337.516 261.031L331.722 268.398L326.981 273.661L323.294 277.871L312.232 288.923L306.438 293.659L298.536 299.975L287.475 307.342L277.993 312.605L269.565 316.815L259.557 321.026L243.227 326.288L227.952 329.446L220.577 330.498L212.149 331.025L187.392 331.551H117.334V337.34L115.754 348.918L113.647 356.812L110.486 365.232L105.745 373.653L101.531 379.442L95.7369 385.757L89.9427 391.546L82.5682 396.809L73.6134 401.545L59.3911 406.281L47.8025 408.387L38.8478 409.439H32V156.303L33.5803 139.462L36.214 126.305L39.9013 113.148L45.6955 98.4127L50.9631 87.8873L56.7573 78.4144L64.1318 67.889L68.8726 62.1L74.6669 55.2585L86.7822 43.1543L92.5764 38.4178L98.8975 33.1551L108.379 26.3136L119.968 19.472L128.922 14.7356L142.091 9.47288L155.787 5.26271L171.062 2.10509L187.392 0Z" fill="#E97E18"/>
</svg>
