<svg width="64" height="64" viewBox="0 0 64 64" fill="none" xmlns="http://www.w3.org/2000/svg">
<path d="M36.5826 12.8201H39.6752L41.3202 13.0175L43.1625 13.3464L44.5443 13.7411L45.8603 14.2016L47.0446 14.7279L48.3606 15.3857L49.7424 16.2409L50.9926 17.1619L51.9795 18.0171L52.6375 18.6091L54.0851 20.0564L54.6773 20.78L55.5327 21.8983L56.2565 23.0166L56.9144 24.2007L57.704 25.8453L58.4278 28.0162L58.8226 29.8582L59.02 31.3054L59.1516 33.0816V34.3315L58.9542 36.5023L58.691 38.0154L58.362 39.3968L57.7698 41.173L57.1776 42.4887L56.4539 43.8701L55.7301 44.9885L54.9405 46.041L54.2167 46.8962L53.7561 47.4225L52.2427 48.9355L51.5189 49.5276L50.532 50.317L49.3476 51.1064L48.0974 51.83L46.6498 52.5536L45.0707 53.1457L43.5573 53.6062L41.5833 54.0009L40.0042 54.1982L38.1618 54.264L27.8972 54.3298L27.7656 55.9744L27.4366 57.3558L27.0418 58.4084L26.5154 59.3951L25.8575 60.3161L25.2653 60.974L25.1995 61.1055H25.0679V61.2371L24.5415 61.6976L23.6203 62.3554L22.1069 63.1448L20.8568 63.5395L19.6066 63.8027L18.6196 63.9342L17.2378 64L17.172 63.9342V42.8176L18.488 42.7518L26.1207 42.686L27.8314 42.6202L27.8972 44.0017L38.6224 43.9359L39.8726 43.8044L41.057 43.5412L42.1755 43.1465L43.2941 42.5545L44.1495 41.9624L44.8075 41.4361L45.7945 40.4494L46.6498 39.331L47.3078 38.1469L47.7026 37.1602L48.0316 36.1734L48.2948 34.5288V32.5553L48.0316 30.9765L47.7026 29.8582L47.3736 29.003L46.6498 27.7531L46.0577 26.9637L45.4655 26.3058L45.1365 25.9111L44.6101 25.4506L43.9521 24.9244L42.8993 24.2665L41.7807 23.7403L40.4648 23.3456L39.2804 23.1482H36.9116L35.6615 23.3456L34.5429 23.6745L33.0295 24.3981L32.1741 24.9902L31.3187 25.7138L30.3976 26.6348L29.6738 27.6215L28.8842 28.8714L28.5552 29.1345L27.3708 29.5292L26.1864 29.7924L25.0679 29.8582H18.488L17.5668 29.7924L17.501 29.5292L18.0274 27.4242L18.5538 25.9769L19.0802 24.7928L19.7382 23.4771L20.3304 22.5561L20.9884 21.5694L21.9095 20.3853L22.6991 19.5301L23.1597 19.0038L24.2125 18.0171L24.9363 17.425L26.0549 16.5698L27.2392 15.7804L28.3578 15.1226L29.8712 14.3989L31.6477 13.7411L33.3585 13.2806L35.2667 12.9517L36.5826 12.8201Z" fill="#006680"/>
<path d="M23.424 0H26.3869L28.5598 0.263136L30.2059 0.592055L31.9178 1.11833L33.3664 1.71038L34.8808 2.434L36.3952 3.35498L37.5804 4.21017L38.6339 5.06536L39.424 5.78898L40.8726 7.23623L41.4652 7.95985L42.2553 8.94661L42.9138 9.93337L43.7039 11.3148L44.0331 11.9727V12.17L43.5064 12.1042L41.7944 11.7753L40.0166 11.578L38.8315 11.5122H37.4487L35.0783 11.7095L33.1689 12.0385L31.5886 12.4332H31.1936L30.5351 11.9069L29.5475 11.3148L28.2964 10.7886L27.0454 10.4596L25.926 10.3281H23.7532L22.7655 10.4596L21.7779 10.7228L20.7244 11.1175L19.605 11.7095L18.5515 12.4989L17.8931 13.091L17.1688 13.8146L16.3787 14.8672L15.7861 15.9197L15.3252 16.9723L14.9301 18.2879L14.7326 19.472L14.6667 20.393V31.1158L14.7984 31.1816L25.8602 31.1158L27.2429 30.9184L28.5598 30.5237L30.0742 29.8001L30.996 29.1423L31.852 28.4187L32.5763 27.695L33.2347 26.8398L33.959 25.7215L34.2882 25.261L34.9467 24.9321L36.0002 24.6032L37.2512 24.4058H38.8973L40.1483 24.6032L41.2018 24.9321L41.9261 25.261L42.7821 25.7215L43.5722 26.3136L44.3623 27.0372L44.7574 27.3661L44.8233 27.695L44.2965 29.0107L43.7697 30.129L42.9796 31.5105L42.1895 32.6288L41.4652 33.5498L40.8726 34.2076L40.4117 34.7339L39.029 36.1154L38.3047 36.7074L37.317 37.4968L35.9343 38.4178L34.7491 39.0756L33.6956 39.6019L32.4446 40.1282L30.4034 40.786L28.494 41.1807L27.5721 41.3123L26.5186 41.3781L23.424 41.4439H14.6667V42.1675L14.4692 43.6147L14.2058 44.6015L13.8107 45.654L13.2182 46.7066L12.6914 47.4302L11.9671 48.2196L11.2428 48.9432L10.321 49.6011L9.20167 50.1931L7.42389 50.7852L5.97532 51.0483L4.85597 51.1799H4V19.5378L4.19753 17.4327L4.52675 15.7881L4.98766 14.1435L5.71194 12.3016L6.37038 10.9859L7.09467 9.8018L8.01648 8.48613L8.60908 7.7625L9.33336 6.90731L10.8478 5.39428L11.5721 4.80223L12.3622 4.14439L13.5474 3.2892L14.9959 2.434L16.1153 1.84195L17.7614 1.18411L19.4733 0.657839L21.3828 0.263136L23.424 0Z" fill="#E97E18"/>
</svg>
