<svg width="192" height="192" viewBox="0 0 192 192" fill="none" xmlns="http://www.w3.org/2000/svg">
<path d="M109.748 38.4604H119.026L123.96 39.0524L129.488 40.0392L133.633 41.2233L137.581 42.6048L141.134 44.1836L145.082 46.1571L149.227 48.7227L152.978 51.4856L155.939 54.0512L157.913 55.8273L162.255 60.1691L164.032 62.34L166.598 65.6949L168.769 69.0499L170.743 72.6022L173.112 77.536L175.283 84.0486L176.468 89.5745L177.06 93.9162L177.455 99.2447V102.994L176.863 109.507L176.073 114.046L175.086 118.191L173.309 123.519L171.533 127.466L169.362 131.61L167.19 134.965L164.821 138.123L162.65 140.689L161.268 142.267L156.728 146.807L154.557 148.583L151.596 150.951L148.043 153.319L144.292 155.49L139.95 157.661L135.212 159.437L130.672 160.818L124.75 162.003L120.013 162.595L114.485 162.792L83.6916 162.989L83.2969 167.923L82.3099 172.068L81.1255 175.225L79.5463 178.185L77.5724 180.948L75.7958 182.922L75.5984 183.317H75.2036V183.711L73.6244 185.093L70.8609 187.066L66.3208 189.434L62.5703 190.619L58.8197 191.408L55.8588 191.803L51.7135 192L51.5161 191.803V128.453L55.464 128.255L78.362 128.058L83.4943 127.861L83.6916 132.005L115.867 131.808L119.618 131.413L123.171 130.624L126.527 129.44L129.882 127.663L132.448 125.887L134.422 124.308L137.383 121.348L139.95 117.993L141.924 114.441L143.108 111.481L144.095 108.52L144.884 103.586V97.6659L144.095 92.9295L143.108 89.5745L142.121 87.0089L139.95 83.2592L138.173 80.891L136.396 78.9175L135.409 77.7334L133.83 76.3519L131.856 74.7731L128.698 72.7996L125.342 71.2208L121.394 70.0367L117.841 69.4446H110.735L106.984 70.0367L103.629 71.0234L99.0885 73.1943L96.5224 74.9705L93.9562 77.1413L91.1927 79.9043L89.0213 82.8645L86.6526 86.6142L85.6656 87.4036L82.1125 88.5877L78.5594 89.3771L75.2036 89.5745H55.464L52.7005 89.3771L52.5031 88.5877L54.0822 82.2725L55.6614 77.9307L57.2406 74.3784L59.2145 70.4314L60.9911 67.6684L62.9651 64.7082L65.7286 61.1558L68.0974 58.5903L69.4791 57.0115L72.6375 54.0512L74.8088 52.275L78.1646 49.7094L81.7177 47.3412L85.0734 45.3677L89.6135 43.1968L94.9432 41.2233L100.076 39.8419L105.8 38.8551L109.748 38.4604Z" fill="#006680"/>
<path d="M70.2719 0H79.1608L85.6794 0.789407L90.6177 1.77617L95.7535 3.35498L100.099 5.13115L104.642 7.30202L109.186 10.0649L112.741 12.6305L115.902 15.1961L118.272 17.367L122.618 21.7087L124.396 23.8796L126.766 26.8398L128.741 29.8001L131.112 33.9445L132.099 35.918V36.5101L130.519 36.3127L125.383 35.326L120.05 34.7339L116.494 34.5366H112.346L105.235 35.1286L99.5066 36.1154L94.7658 37.2995H93.5807L91.6053 35.7207L88.6424 33.9445L84.8893 32.3657L81.1361 31.3789L77.7781 30.9842H71.2596L68.2966 31.3789L65.3336 32.1683L62.1731 33.3524L58.815 35.1286L55.6545 37.4968L53.6792 39.273L51.5064 41.4439L49.136 44.6015L47.3582 47.7591L45.9755 50.9168L44.7903 54.8638L44.1977 58.4161L44.0002 61.179V93.3474L44.3952 93.5447L77.5806 93.3474L81.7287 92.7553L85.6794 91.5712L90.2226 89.4004L92.9881 87.4268L95.556 85.256L97.7288 83.0851L99.7041 80.5195L101.877 77.1645L102.865 75.7831L104.84 74.7963L108 73.8096L111.754 73.2175H116.692L120.445 73.8096L123.605 74.7963L125.778 75.7831L128.346 77.1645L130.717 78.9407L133.087 81.1116L134.272 82.0983L134.47 83.0851L132.889 87.0321L131.309 90.3871L128.939 94.5315L126.568 97.8865L124.396 100.649L122.618 102.623L121.235 104.202L117.087 108.346L114.914 110.122L111.951 112.491L107.803 115.253L104.247 117.227L101.087 118.806L97.3338 120.385L91.2103 122.358L85.4818 123.542L82.7164 123.937L79.5559 124.134L70.2719 124.332H44.0002V126.502L43.4076 130.844L42.6174 133.804L41.4322 136.962L39.6545 140.12L38.0742 142.291L35.9014 144.659L33.7285 146.83L30.9631 148.803L27.605 150.579L22.2717 152.356L17.926 153.145L14.5679 153.54H12V58.6135L12.5926 52.2982L13.5803 47.3644L14.963 42.4306L17.1358 36.9048L19.1111 32.9577L21.284 29.4054L24.0494 25.4584L25.8272 23.2875L28.0001 20.7219L32.5433 16.1828L34.7162 14.4067L37.0865 12.4332L40.6421 9.86759L44.9878 7.30202L48.3459 5.52585L53.2842 3.55233L58.42 1.97352L64.1484 0.789407L70.2719 0Z" fill="#E97E18"/>
</svg>
